<svg width="641" height="555" xmlns="http://www.w3.org/2000/svg" xmlns:xlink="http://www.w3.org/1999/xlink" xml:space="preserve" overflow="hidden"><g transform="translate(-1306 -838)"><g><path d="M1320.5 1379.5 1627 851.5 1933.5 1379.5Z" stroke="#333F50" stroke-width="22.9167" stroke-linecap="butt" stroke-linejoin="round" stroke-miterlimit="10" stroke-opacity="1" fill="#333F50" fill-rule="evenodd" fill-opacity="1"/><path d="M1438 1312 1627 987 1816 1312Z" stroke="#F2F2F2" stroke-width="13.75" stroke-linecap="butt" stroke-linejoin="round" stroke-miterlimit="10" stroke-opacity="1" fill="#F2F2F2" fill-rule="evenodd" fill-opacity="1"/><path d="M1666 1369.17C1666 1369.63 1665.63 1370 1665.17 1370L1661.83 1370C1661.37 1370 1661 1369.63 1661 1369.17L1661 1345.83C1661 1345.37 1661.37 1345 1661.83 1345L1665.17 1345C1665.63 1345 1666 1345.37 1666 1345.83Z" fill="#FFFFFF" fill-rule="evenodd" fill-opacity="1"/><path d="M1711 1369.17C1711 1369.63 1710.63 1370 1710.17 1370L1706.83 1370C1706.37 1370 1706 1369.63 1706 1369.17L1706 1345.83C1706 1345.37 1706.37 1345 1706.83 1345L1710.17 1345C1710.63 1345 1711 1345.37 1711 1345.83Z" fill="#FFFFFF" fill-rule="evenodd" fill-opacity="1"/><path d="M1757 1369.17C1757 1369.63 1756.63 1370 1756.17 1370L1752.83 1370C1752.37 1370 1752 1369.63 1752 1369.17L1752 1345.83C1752 1345.37 1752.37 1345 1752.83 1345L1756.17 1345C1756.63 1345 1757 1345.37 1757 1345.83Z" fill="#FFFFFF" fill-rule="evenodd" fill-opacity="1"/><path d="M1802 1369.33C1802 1369.7 1801.7 1370 1801.33 1370L1798.67 1370C1798.3 1370 1798 1369.7 1798 1369.33L1798 1345.67C1798 1345.3 1798.3 1345 1798.67 1345L1801.33 1345C1801.7 1345 1802 1345.3 1802 1345.67Z" fill="#FFFFFF" fill-rule="evenodd" fill-opacity="1"/><path d="M1850 1369.17C1850 1369.63 1849.63 1370 1849.17 1370L1845.83 1370C1845.37 1370 1845 1369.63 1845 1369.17L1845 1345.83C1845 1345.37 1845.37 1345 1845.83 1345L1849.17 1345C1849.63 1345 1850 1345.37 1850 1345.83Z" fill="#FFFFFF" fill-rule="evenodd" fill-opacity="1"/><path d="M1897 1369.17C1897 1369.63 1896.63 1370 1896.17 1370L1892.83 1370C1892.37 1370 1892 1369.63 1892 1369.17L1892 1345.83C1892 1345.37 1892.37 1345 1892.83 1345L1896.17 1345C1896.63 1345 1897 1345.37 1897 1345.83Z" fill="#FFFFFF" fill-rule="evenodd" fill-opacity="1"/><path d="M1508.87 1123.04C1509.25 1123.26 1509.39 1123.76 1509.16 1124.14L1507.55 1126.94C1507.33 1127.32 1506.83 1127.45 1506.45 1127.23L1486.1 1115.48C1485.71 1115.26 1485.58 1114.77 1485.81 1114.38L1487.42 1111.59C1487.64 1111.2 1488.13 1111.07 1488.52 1111.29Z" fill="#FFFFFF" fill-rule="evenodd" fill-opacity="1"/><path d="M1529.99 1086.45C1530.38 1086.67 1530.51 1087.16 1530.29 1087.55L1528.68 1090.34C1528.45 1090.73 1527.96 1090.86 1527.57 1090.64L1507.23 1078.89C1506.84 1078.67 1506.71 1078.18 1506.93 1077.79L1508.54 1075C1508.77 1074.61 1509.26 1074.48 1509.65 1074.7Z" fill="#FFFFFF" fill-rule="evenodd" fill-opacity="1"/><path d="M1551.12 1049.86C1551.5 1050.08 1551.64 1050.57 1551.41 1050.96L1549.8 1053.75C1549.58 1054.14 1549.09 1054.27 1548.7 1054.05L1528.35 1042.3C1527.97 1042.08 1527.83 1041.59 1528.06 1041.2L1529.67 1038.41C1529.89 1038.02 1530.39 1037.89 1530.77 1038.11Z" fill="#FFFFFF" fill-rule="evenodd" fill-opacity="1"/><path d="M1572.4 1013C1572.79 1013.22 1572.92 1013.71 1572.7 1014.1L1571.08 1016.89C1570.86 1017.28 1570.37 1017.41 1569.98 1017.19L1549.63 1005.44C1549.25 1005.22 1549.12 1004.73 1549.34 1004.34L1550.95 1001.55C1551.17 1001.16 1551.67 1001.03 1552.05 1001.25Z" fill="#FFFFFF" fill-rule="evenodd" fill-opacity="1"/><path d="M1594.38 974.924C1594.77 975.147 1594.9 975.641 1594.68 976.026L1593.06 978.82C1592.84 979.206 1592.35 979.338 1591.96 979.116L1571.61 967.368C1571.23 967.146 1571.1 966.652 1571.32 966.267L1572.93 963.472C1573.16 963.087 1573.65 962.955 1574.03 963.177Z" fill="#FFFFFF" fill-rule="evenodd" fill-opacity="1"/><path d="M1616.36 936.851C1616.75 937.074 1616.88 937.567 1616.66 937.953L1615.05 940.747C1614.82 941.133 1614.33 941.265 1613.94 941.042L1593.6 929.295C1593.21 929.072 1593.08 928.579 1593.3 928.193L1594.91 925.399C1595.14 925.013 1595.63 924.881 1596.02 925.104Z" fill="#FFFFFF" fill-rule="evenodd" fill-opacity="1"/><path d="M1380.51 1345.36C1380.89 1345.59 1381.03 1346.08 1380.8 1346.47L1379.19 1349.26C1378.97 1349.65 1378.47 1349.78 1378.09 1349.56L1357.74 1337.81C1357.36 1337.59 1357.22 1337.09 1357.45 1336.71L1359.06 1333.91C1359.28 1333.53 1359.78 1333.39 1360.16 1333.62Z" fill="#FFFFFF" fill-rule="evenodd" fill-opacity="1"/><path d="M1401.63 1308.77C1402.02 1309 1402.15 1309.49 1401.93 1309.87L1400.32 1312.67C1400.09 1313.05 1399.6 1313.19 1399.21 1312.96L1378.87 1301.22C1378.48 1300.99 1378.35 1300.5 1378.57 1300.11L1380.19 1297.32C1380.41 1296.93 1380.9 1296.8 1381.29 1297.03Z" fill="#FFFFFF" fill-rule="evenodd" fill-opacity="1"/><path d="M1422.76 1272.18C1423.15 1272.4 1423.28 1272.9 1423.06 1273.28L1421.44 1276.08C1421.22 1276.46 1420.73 1276.6 1420.34 1276.37L1399.99 1264.63C1399.61 1264.4 1399.48 1263.91 1399.7 1263.52L1401.31 1260.73C1401.53 1260.34 1402.03 1260.21 1402.41 1260.43Z" fill="#FFFFFF" fill-rule="evenodd" fill-opacity="1"/><path d="M1444.04 1235.32C1444.43 1235.54 1444.56 1236.04 1444.34 1236.42L1442.72 1239.22C1442.5 1239.6 1442.01 1239.74 1441.62 1239.51L1421.27 1227.77C1420.89 1227.54 1420.76 1227.05 1420.98 1226.66L1422.59 1223.87C1422.82 1223.48 1423.31 1223.35 1423.69 1223.57Z" fill="#FFFFFF" fill-rule="evenodd" fill-opacity="1"/><path d="M1466.02 1197.25C1466.41 1197.47 1466.54 1197.96 1466.32 1198.35L1464.7 1201.14C1464.48 1201.53 1463.99 1201.66 1463.6 1201.44L1443.26 1189.69C1442.87 1189.47 1442.74 1188.98 1442.96 1188.59L1444.57 1185.8C1444.8 1185.41 1445.29 1185.28 1445.68 1185.5Z" fill="#FFFFFF" fill-rule="evenodd" fill-opacity="1"/><path d="M1488 1159.17C1488.39 1159.4 1488.52 1159.89 1488.3 1160.28L1486.69 1163.07C1486.46 1163.46 1485.97 1163.59 1485.58 1163.37L1465.24 1151.62C1464.85 1151.4 1464.72 1150.9 1464.94 1150.52L1466.56 1147.72C1466.78 1147.34 1467.27 1147.2 1467.66 1147.43Z" fill="#FFFFFF" fill-rule="evenodd" fill-opacity="1"/><path d="M1421.65 1313.36 1757.78 980.177 1748.6 970.922 1766.95 989.431 1785.3 1007.94 1776.12 998.685 1439.99 1331.87Z" fill="#EAB762" fill-rule="evenodd" fill-opacity="1"/><path d="M1769.96 1005 1810.7 964.212 1823.63 1000.15C1824.27 1002 1826.28 1002.98 1828.12 1002.35 1829.15 1001.99 1829.96 1001.18 1830.31 1000.15L1864.82 896.589C1864.94 896.218 1865 895.829 1865 895.438 1864.96 893.498 1863.35 891.959 1861.41 892.001 1861.05 892.008 1860.7 892.071 1860.36 892.187L1756.76 926.635C1754.92 927.285 1753.96 929.304 1754.61 931.144 1754.97 932.151 1755.76 932.942 1756.76 933.298L1792.72 946.262 1752 987.009Z" fill="#EAB762" fill-rule="evenodd" fill-opacity="1"/></g></g></svg>